<svg width="470" height="101" viewBox="0 0 470 101" fill="none" xmlns="http://www.w3.org/2000/svg">
<path d="M8.9407e-08 76.52C2.88 76.52 4.96 76.36 6.24 76.04C7.52 75.64 8.32 75 8.64 74.12C9.04 73.24 9.24 71.8 9.24 69.8V11.12C9.24 9.04 9.04 7.56 8.64 6.68C8.24 5.8 7.4 5.2 6.12 4.87999C4.92 4.47999 2.88 4.27999 8.9407e-08 4.27999V0.799997H29.76C39.44 0.799997 46.64 2.84 51.36 6.92C56.16 11 58.56 16.48 58.56 23.36C58.56 30.64 56.04 36.56 51 41.12C46.04 45.6 38.56 47.84 28.56 47.84H20.28V69.8C20.28 71.88 20.48 73.36 20.88 74.24C21.36 75.12 22.32 75.72 23.76 76.04C25.2 76.36 27.56 76.52 30.84 76.52V80H8.9407e-08V76.52ZM27.84 43.4C40.32 43.4 46.56 36.96 46.56 24.08C46.56 17.68 45 12.92 41.88 9.8C38.76 6.6 33.96 5 27.48 5C24.52 5 22.56 5.36 21.6 6.07999C20.72 6.71999 20.28 7.76 20.28 9.2V43.4H27.84ZM160.107 81.056C157.483 81.056 155.243 80.288 153.387 78.752C151.595 77.216 150.699 74.624 150.699 70.976V38.144H143.691V35.264C150.347 34.56 154.475 29.632 156.075 20.48H158.859V35.072H169.515V38.144H158.859V69.536C158.859 72.16 159.243 74.048 160.011 75.2C160.843 76.288 162.059 76.832 163.659 76.832C164.683 76.832 165.739 76.608 166.827 76.16C167.915 75.648 168.843 75.104 169.611 74.528L170.667 76.832C168.747 78.24 167.051 79.296 165.579 80C164.171 80.704 162.347 81.056 160.107 81.056Z" fill="#4285F4"/>
<path d="M85.0935 33.92C87.3975 33.92 89.1575 34.592 90.3735 35.936C91.6535 37.28 92.2935 39.136 92.2935 41.504C92.2935 43.424 91.8455 44.928 90.9495 46.016C90.0535 47.104 88.6775 47.648 86.8215 47.648C85.2215 47.648 83.9735 47.232 83.0775 46.4C82.2455 45.568 81.8295 44.48 81.8295 43.136C81.8295 42.368 81.9575 41.728 82.2135 41.216C82.4695 40.704 82.8535 40.16 83.3655 39.584C83.8775 39.008 84.1335 38.56 84.1335 38.24C84.1335 37.664 83.7175 37.376 82.8855 37.376C81.6695 37.376 80.3575 37.984 78.9495 39.2C77.6055 40.416 76.4215 42.08 75.3975 44.192C74.3735 46.24 73.7335 48.48 73.4775 50.912V72.032C73.4775 73.696 73.6055 74.88 73.8615 75.584C74.1815 76.224 74.8215 76.672 75.7815 76.928C76.7415 77.12 78.3735 77.216 80.6775 77.216V80H58.6935V77.216C60.8055 77.216 62.3095 77.088 63.2055 76.832C64.1015 76.576 64.6455 76.128 64.8375 75.488C65.0935 74.848 65.2215 73.696 65.2215 72.032V43.424C65.2215 41.76 65.0295 40.672 64.6455 40.16C64.2615 39.584 63.5255 39.296 62.4375 39.296H59.1735V36.416L70.5015 34.496H73.1895V43.52H73.2855C74.6935 40.832 76.2935 38.56 78.0855 36.704C79.8775 34.848 82.2135 33.92 85.0935 33.92ZM189.65 81.056C187.026 81.056 184.786 80.288 182.93 78.752C181.138 77.216 180.242 74.624 180.242 70.976V38.144H173.234V35.264C179.89 34.56 184.018 29.632 185.618 20.48H188.402V35.072H199.058V38.144H188.402V69.536C188.402 72.16 188.786 74.048 189.554 75.2C190.386 76.288 191.602 76.832 193.202 76.832C194.226 76.832 195.282 76.608 196.37 76.16C197.458 75.648 198.386 75.104 199.154 74.528L200.21 76.832C198.29 78.24 196.594 79.296 195.122 80C193.714 80.704 191.89 81.056 189.65 81.056Z" fill="#DB4437"/>
<path d="M137.752 57.92H107.224C107.352 63.872 108.408 68.576 110.392 72.032C112.441 75.488 116.024 77.216 121.144 77.216C124.857 77.216 127.801 76.256 129.976 74.336C132.153 72.416 133.753 69.952 134.777 66.944L137.465 68.096C136.121 72 134.041 75.136 131.225 77.504C128.409 79.872 124.217 81.056 118.648 81.056C111.8 81.056 106.68 79.072 103.288 75.104C99.9605 71.136 98.2965 65.44 98.2965 58.016C98.2965 50.4 100.024 44.512 103.48 40.352C106.936 36.128 112.024 34.016 118.745 34.016C131.417 34.016 137.752 41.696 137.752 57.056V57.92ZM128.825 54.848C128.825 48.768 128.089 44.288 126.616 41.408C125.144 38.464 122.552 36.992 118.84 36.992C115.064 36.992 112.248 38.496 110.392 41.504C108.536 44.448 107.48 48.896 107.224 54.848H128.825Z" fill="#F4B400"/>
<path d="M247.416 35.072V37.856C245.752 37.856 244.504 37.984 243.672 38.24C242.904 38.496 242.296 38.944 241.848 39.584C241.4 40.224 240.888 41.28 240.312 42.752L222.84 87.872C221.624 91.008 220.6 93.344 219.768 94.88C219 96.48 217.976 97.76 216.696 98.72C215.416 99.744 213.72 100.256 211.608 100.256C209.176 100.256 207.192 99.584 205.656 98.24C204.184 96.96 203.448 95.36 203.448 93.44C203.448 91.904 203.928 90.624 204.888 89.6C205.848 88.576 207 88.064 208.344 88.064C209.496 88.064 210.488 88.416 211.32 89.12C212.216 89.888 212.664 90.912 212.664 92.192C212.664 93.024 212.44 93.792 211.992 94.496C211.544 95.2 211.32 95.744 211.32 96.128C211.32 96.896 211.864 97.28 212.952 97.28C214.232 97.28 215.288 96.736 216.12 95.648C216.952 94.56 217.944 92.416 219.096 89.216L222.264 80.768L207.384 42.368C206.68 40.448 205.912 39.232 205.08 38.72C204.312 38.144 202.84 37.856 200.664 37.856V35.072H220.824V37.856H217.56C216.152 37.856 215.448 38.4 215.448 39.488C215.448 39.936 215.544 40.448 215.736 41.024L226.104 70.112H226.2L236.952 41.12C237.144 40.544 237.24 40.032 237.24 39.584C237.24 38.432 236.504 37.856 235.032 37.856H231.096V35.072H247.416Z" fill="#0F9D58"/>
<path d="M250.356 3.00781C250.746 3.00781 254.848 2.8125 262.66 2.42188C262.817 2.73437 262.856 3.39844 262.777 4.41406C262.777 5.35156 262.66 5.82031 262.426 5.82031C261.879 5.82031 261.215 5.89844 260.434 6.05469C259.652 6.13281 258.793 6.48437 257.856 7.10938C256.996 7.65625 256.567 8.35937 256.567 9.21875C256.567 11.5625 257.465 14.4531 259.262 17.8906L283.52 65.9375C283.754 66.3281 284.067 66.4453 284.457 66.2891C284.848 66.0547 285.121 65.7422 285.277 65.3516L295.004 45.0781L282.699 19.7656C280.434 15.1562 278.168 11.4062 275.902 8.51562C275.277 7.73438 274.223 7.10938 272.738 6.64062C271.254 6.09375 270.043 5.82031 269.106 5.82031C268.793 5.82031 268.637 5.23438 268.637 4.0625C268.637 3.28125 268.793 2.73437 269.106 2.42188C278.09 2.8125 283.012 3.00781 283.871 3.00781C284.184 3.00781 288.246 2.8125 296.059 2.42188C296.215 2.73437 296.254 3.39844 296.176 4.41406C296.176 5.35156 296.059 5.82031 295.824 5.82031C295.277 5.82031 294.613 5.89844 293.832 6.05469C293.129 6.13281 292.309 6.44531 291.371 6.99219C290.512 7.53906 290.082 8.28125 290.082 9.21875C290.082 11.25 290.981 14.1406 292.777 17.8906L300.512 33.7109L308.715 16.4844C309.809 14.0625 310.356 11.7969 310.356 9.6875C310.356 8.35937 309.496 7.38281 307.777 6.75781C306.137 6.13281 304.692 5.82031 303.442 5.82031C303.129 5.82031 302.973 5.35156 302.973 4.41406C302.973 3.39844 303.129 2.73437 303.442 2.42188C309.692 2.8125 313.637 3.00781 315.277 3.00781C315.59 3.00781 319.652 2.8125 327.465 2.42188C327.621 2.73437 327.66 3.39844 327.582 4.41406C327.582 5.35156 327.465 5.82031 327.231 5.82031C326.449 5.82031 325.082 6.13281 323.129 6.75781C321.254 7.38281 319.926 8.16406 319.145 9.10156C317.738 10.8203 315.473 14.8438 312.348 21.1719L303.324 39.6875L316.098 65.9375C316.567 66.7969 317.035 66.6016 317.504 65.3516L338.481 17.1875C339.809 13.9844 340.473 11.5234 340.473 9.80469C340.473 8.47656 339.652 7.5 338.012 6.875C336.449 6.17188 335.043 5.82031 333.793 5.82031C333.481 5.82031 333.324 5.35156 333.324 4.41406C333.324 3.39844 333.481 2.73437 333.793 2.42188C340.043 2.8125 344.027 3.00781 345.746 3.00781C347.543 3.00781 349.027 2.96875 350.199 2.89062C351.371 2.8125 352.582 2.73437 353.832 2.65625C355.082 2.57813 356.254 2.5 357.348 2.42188C357.504 2.89062 357.582 3.47656 357.582 4.17969C357.582 5.27344 357.426 5.82031 357.113 5.82031C356.332 5.82031 355.082 6.13281 353.363 6.75781C351.645 7.30469 350.356 8.08594 349.496 9.10156C347.231 11.7578 344.965 15.7031 342.699 20.9375L317.856 77.1875C316.684 79.6875 315.16 80.9375 313.285 80.9375C312.817 80.9375 312.465 80.7422 312.231 80.3516L297.934 51.0547L285.277 77.1875C284.106 79.6875 282.582 80.9375 280.707 80.9375C280.238 80.9375 279.887 80.7422 279.652 80.3516L249.184 19.7656C246.918 15.1562 244.652 11.4062 242.387 8.51562C241.762 7.73438 240.707 7.10938 239.223 6.64062C237.738 6.09375 236.527 5.82031 235.59 5.82031C235.277 5.82031 235.121 5.3125 235.121 4.29688C235.121 3.35938 235.277 2.73437 235.59 2.42188C244.574 2.8125 249.496 3.00781 250.356 3.00781ZM358.815 30.9688C358.815 27.0938 358.596 24.3125 358.159 22.625C357.971 22.125 357.065 21.6875 355.44 21.3125C353.878 20.875 352.69 20.6562 351.878 20.6562C351.628 20.6562 351.503 20.25 351.503 19.4375C351.503 18.6875 351.628 18.1875 351.878 17.9375C359.065 18.25 362.815 18.4062 363.128 18.4062C364.128 18.4062 367.753 18.25 374.003 17.9375C374.128 18.3125 374.19 18.7812 374.19 19.3438C374.19 20.2188 374.065 20.6562 373.815 20.6562C373.19 20.6562 372.065 20.875 370.44 21.3125C368.815 21.75 367.94 22.1875 367.815 22.625C367.253 24.8125 366.971 27.7188 366.971 31.3438V66.9688C366.971 70.5938 367.253 73.5 367.815 75.6875C367.94 76.125 368.815 76.5625 370.44 77C372.065 77.375 373.19 77.5625 373.815 77.5625C374.065 77.5625 374.19 78.0312 374.19 78.9688C374.19 79.4688 374.128 79.9062 374.003 80.2812C367.753 79.9688 364.128 79.8125 363.128 79.8125C362.815 79.8125 359.065 79.9688 351.878 80.2812C351.628 80.0312 351.503 79.5625 351.503 78.875C351.503 78 351.628 77.5625 351.878 77.5625C352.69 77.5625 353.878 77.375 355.44 77C357.065 76.625 357.971 76.1875 358.159 75.6875C358.596 74 358.815 71.2188 358.815 67.3438V30.9688ZM393.701 18.5C394.951 18.5 396.17 18.4688 397.358 18.4062C398.545 18.3438 399.826 18.2812 401.201 18.2188C402.576 18.0938 403.701 18 404.576 17.9375C404.701 18.1875 404.733 18.7188 404.67 19.5312C404.67 20.2812 404.576 20.6562 404.389 20.6562C403.764 20.6562 402.639 20.875 401.014 21.3125C399.389 21.75 398.514 22.1875 398.389 22.625C397.826 24.8125 397.545 27.7188 397.545 31.3438V46.625L398.201 47.1875H398.858C400.858 47.1875 402.67 46.2812 404.295 44.4688C411.608 36.2812 416.983 29.9375 420.42 25.4375C421.92 23.625 422.67 22.4375 422.67 21.875C422.67 20.8125 420.889 20.2812 417.326 20.2812C417.076 20.2812 416.951 20 416.951 19.4375C416.951 18.875 417.014 18.375 417.139 17.9375C417.951 18 419.014 18.0938 420.326 18.2188C421.639 18.2812 422.858 18.3438 423.983 18.4062C425.108 18.4688 426.17 18.5 427.17 18.5C428.733 18.5 430.514 18.4375 432.514 18.3125C434.514 18.125 435.889 18 436.639 17.9375C436.764 18.1875 436.795 18.6562 436.733 19.3438C436.733 19.9688 436.639 20.2812 436.451 20.2812C432.639 20.7188 429.764 22.0312 427.826 24.2188L408.983 46.1562C408.483 46.7188 408.701 47.5625 409.639 48.6875L432.233 73.5312C433.233 74.5938 434.545 75.4688 436.17 76.1562C437.795 76.8438 439.045 77.25 439.92 77.375C440.858 77.5 441.608 77.5625 442.17 77.5625C442.483 77.5625 442.639 78.125 442.639 79.25C442.639 79.6875 442.576 80.0312 442.451 80.2812C436.201 79.9688 432.326 79.8125 430.826 79.8125C429.264 79.8125 427.858 79.8438 426.608 79.9062C425.358 79.9688 423.951 80.0312 422.389 80.0938C420.826 80.1562 419.42 80.2188 418.17 80.2812C417.92 80.0312 417.795 79.5312 417.795 78.7812C417.795 77.9688 417.92 77.5625 418.17 77.5625C418.92 77.5625 419.764 77.4375 420.701 77.1875C421.701 76.9375 422.201 76.5625 422.201 76.0625C422.201 74.0625 415.108 65.7812 400.92 51.2188C400.67 50.9688 399.764 50.8438 398.201 50.8438C397.764 50.8438 397.545 51.0938 397.545 51.5938V66.9688C397.545 70.5938 397.826 73.5 398.389 75.6875C398.514 76.125 399.389 76.5625 401.014 77C402.639 77.375 403.764 77.5625 404.389 77.5625C404.576 77.5625 404.67 77.9375 404.67 78.6875C404.733 79.4375 404.701 79.9688 404.576 80.2812C398.326 79.9688 394.701 79.8125 393.701 79.8125C393.389 79.8125 389.639 79.9688 382.451 80.2812C382.201 80.0312 382.076 79.5625 382.076 78.875C382.076 78 382.201 77.5625 382.451 77.5625C383.264 77.5625 384.451 77.375 386.014 77C387.639 76.625 388.545 76.1875 388.733 75.6875C389.17 74 389.389 71.2188 389.389 67.3438V30.9688C389.389 27.0938 389.17 24.3125 388.733 22.625C388.545 22.125 387.639 21.6875 386.014 21.3125C384.451 20.875 383.264 20.6562 382.451 20.6562C382.201 20.6562 382.076 20.25 382.076 19.4375C382.076 18.6875 382.201 18.1875 382.451 17.9375C383.264 18 384.92 18.125 387.42 18.3125C389.92 18.4375 392.014 18.5 393.701 18.5ZM454.076 30.9688C454.076 27.0938 453.858 24.3125 453.42 22.625C453.233 22.125 452.326 21.6875 450.701 21.3125C449.139 20.875 447.951 20.6562 447.139 20.6562C446.889 20.6562 446.764 20.25 446.764 19.4375C446.764 18.6875 446.889 18.1875 447.139 17.9375C454.326 18.25 458.076 18.4062 458.389 18.4062C459.389 18.4062 463.014 18.25 469.264 17.9375C469.389 18.3125 469.451 18.7812 469.451 19.3438C469.451 20.2188 469.326 20.6562 469.076 20.6562C468.451 20.6562 467.326 20.875 465.701 21.3125C464.076 21.75 463.201 22.1875 463.076 22.625C462.514 24.8125 462.233 27.7188 462.233 31.3438V66.9688C462.233 70.5938 462.514 73.5 463.076 75.6875C463.201 76.125 464.076 76.5625 465.701 77C467.326 77.375 468.451 77.5625 469.076 77.5625C469.326 77.5625 469.451 78.0312 469.451 78.9688C469.451 79.4688 469.389 79.9062 469.264 80.2812C463.014 79.9688 459.389 79.8125 458.389 79.8125C458.076 79.8125 454.326 79.9688 447.139 80.2812C446.889 80.0312 446.764 79.5625 446.764 78.875C446.764 78 446.889 77.5625 447.139 77.5625C447.951 77.5625 449.139 77.375 450.701 77C452.326 76.625 453.233 76.1875 453.42 75.6875C453.858 74 454.076 71.2188 454.076 67.3438V30.9688Z" fill="black"/>
</svg>
